<svg version="1.1" id="Layer_1" xmlns="http://www.w3.org/2000/svg" xmlns:xlink="http://www.w3.org/1999/xlink" x="0px" y="0px"
	 width="100%" viewBox="0 0 156 170" enable-background="new 0 0 156 170" xml:space="preserve">
<path fill="#FEFEFD" opacity="1.000000" stroke="none" 
	d="
M157.000000,69.000000 
	C157.000000,103.333336 157.000000,137.166672 157.000000,171.000000 
	C105.000000,171.000000 53.000000,171.000000 1.000000,171.000000 
	C1.000000,114.333336 1.000000,57.666668 1.000000,1.000000 
	C53.000000,1.000000 105.000000,1.000000 157.000000,1.000000 
	C157.000000,23.500000 157.000000,46.000000 157.000000,69.000000 
M25.011692,144.680481 
	C25.528234,146.030579 26.044777,147.380692 26.561319,148.730789 
	C26.939409,148.642685 27.317499,148.554581 27.695589,148.466492 
	C27.804308,147.071365 27.913027,145.676254 28.839420,144.136810 
	C30.219023,144.180847 31.598627,144.224899 33.099331,144.958923 
	C35.351559,145.907440 37.603786,146.855957 39.856014,147.804474 
	C40.030228,146.922363 40.204445,146.040268 40.378658,145.158157 
	C40.657017,145.512955 40.935375,145.867767 41.213734,146.222565 
	C42.400867,145.289734 43.588001,144.356888 45.127239,142.933304 
	C46.044331,142.199738 46.961426,141.466171 48.250202,141.328888 
	C52.168648,141.973282 53.597786,140.628754 52.033627,136.180130 
	C53.064747,135.244080 54.095863,134.308029 55.944069,133.704117 
	C59.955868,133.636292 61.519875,131.568039 60.894775,127.298317 
	C60.894775,127.298317 60.958561,126.915680 61.469883,126.806084 
	C61.881111,126.494476 62.292339,126.182877 63.237091,126.073059 
	C65.102722,123.717270 68.404472,121.386597 68.446220,118.998909 
	C68.491608,116.403671 65.506691,113.755447 64.446945,112.083229 
	C61.644642,111.694138 59.885387,111.235733 58.136227,111.271454 
	C56.602283,111.302780 54.693062,111.462265 53.685307,112.376282 
	C52.990948,113.006065 53.552036,115.020035 53.552036,115.903595 
	C55.946693,115.535484 57.484131,115.299149 58.784027,115.635139 
	C57.856663,116.728027 56.929298,117.820915 55.404087,119.228157 
	C49.040234,125.348198 42.676380,131.468231 35.698399,138.178864 
	C35.355339,135.799500 35.153439,134.399155 35.123055,132.075272 
	C35.058495,109.050797 34.993931,86.026321 35.109589,62.311768 
	C37.569881,59.610386 40.030174,56.909004 43.131145,54.111588 
	C44.233837,53.098640 45.336533,52.085697 47.025501,50.935818 
	C47.589310,50.393200 48.153114,49.850578 49.308270,49.155659 
	C50.379810,48.181232 51.451351,47.206806 53.039761,46.067017 
	C53.388603,45.540344 53.737450,45.013676 54.053360,44.403408 
	C54.053360,44.403408 54.136070,44.439564 54.856350,44.627777 
	C56.908417,42.763275 58.960480,40.898773 61.680210,38.896976 
	C63.915016,36.979031 66.149826,35.061085 69.017776,32.923561 
	C70.951187,31.413486 72.884605,29.903414 75.109390,28.165766 
	C75.510834,29.900229 75.754120,30.951332 75.836998,33.016323 
	C76.218597,33.552998 76.600197,34.089672 76.459007,34.842667 
	C76.621597,35.693588 76.784187,36.544506 76.124512,38.078587 
	C76.057945,49.384098 75.991379,60.689606 75.447365,72.585434 
	C73.494286,72.824013 71.541206,73.062584 70.290298,73.215385 
	C68.752510,76.337547 67.368408,79.147682 65.278038,82.238365 
	C62.078571,85.008553 62.465687,88.362236 63.438080,91.863693 
	C66.143906,91.863693 68.574493,91.863693 71.924797,92.032547 
	C76.946808,91.964645 81.968811,91.896744 87.825577,92.023903 
	C91.464729,92.681831 92.793167,90.715836 91.826027,87.665901 
	C91.168701,85.592941 89.316856,83.898758 87.385551,81.865089 
	C86.670990,81.252983 85.956429,80.640877 85.903053,79.917000 
	C88.309853,77.277580 86.255882,77.135475 84.061523,76.353889 
	C84.025040,75.928665 83.988556,75.503433 84.315567,74.521698 
	C84.398712,73.710930 84.701530,72.247849 84.530968,72.190399 
	C82.847450,71.623444 81.085411,71.289688 79.209152,70.096542 
	C79.237679,58.077183 79.266212,46.057827 80.012779,34.003777 
	C80.687431,32.951859 81.362091,31.899946 82.633499,31.012358 
	C83.533440,31.814007 84.433372,32.615654 85.138977,34.321392 
	C84.768524,40.095795 88.957420,37.452751 91.841011,37.838089 
	C91.841011,37.838089 91.978851,38.116905 91.978210,38.905827 
	C92.529510,41.421341 93.080818,43.936855 93.717476,46.841843 
	C95.829292,46.096188 97.355774,45.557213 99.262077,45.558289 
	C100.504295,46.381359 101.746513,47.204433 102.686378,48.687466 
	C102.096191,50.127300 101.505997,51.567135 100.513977,53.987270 
	C104.325340,53.987270 107.206223,53.987270 110.484001,54.528366 
	C113.189117,56.384102 115.894226,58.239838 118.871925,60.986576 
	C118.911377,88.704819 118.950829,116.423065 119.064751,144.693817 
	C119.361740,145.004944 119.658730,145.316086 119.955711,145.627228 
	C120.311119,145.199722 120.666519,144.772202 121.657646,144.132416 
	C122.098793,144.181503 122.539948,144.230606 123.075516,144.942001 
	C122.897499,146.818542 122.719482,148.695084 122.465378,151.373718 
	C125.802994,148.642700 131.041641,150.351868 132.278214,144.891922 
	C132.185684,144.928146 132.093155,144.964386 130.948624,144.978302 
	C129.908401,144.791916 128.868164,144.605545 128.546417,144.021988 
	C128.762009,142.685135 128.977600,141.348297 129.819244,139.891159 
	C129.610916,138.922989 129.402603,137.954803 129.055557,136.060257 
	C129.102066,111.711075 129.148590,87.361893 129.840286,62.920773 
	C130.432251,62.271080 131.024216,61.621384 131.616180,60.971687 
	C130.803314,60.643772 129.990448,60.315857 129.024567,59.251846 
	C129.020218,58.500523 129.015854,57.749195 129.688217,56.990417 
	C130.281677,56.778629 131.399200,56.549343 131.392807,56.357578 
	C131.168640,49.643200 125.237190,45.780857 118.289131,47.880924 
	C117.871994,47.493618 117.454857,47.106316 117.033310,45.880577 
	C116.447174,43.698017 116.193199,41.307621 115.046890,39.475559 
	C114.751503,39.003464 111.649956,40.287159 109.278801,40.481003 
	C109.190498,40.291794 109.102196,40.102585 109.023308,39.072594 
	C108.413582,36.621006 108.484741,32.633606 107.066826,32.004986 
	C102.764153,30.097439 98.720665,28.500477 97.316994,23.472445 
	C97.264000,23.282629 96.683540,23.046930 96.453140,23.128201 
	C91.493172,24.877762 89.968575,19.810383 86.678780,18.288586 
	C84.527885,17.293623 82.147629,16.794518 79.381554,16.004789 
	C79.073174,15.813617 78.919518,15.536619 78.978607,14.330234 
	C78.627632,10.029827 76.718651,8.581550 74.308533,11.087102 
	C71.148544,14.372222 68.743195,18.383234 65.537392,22.408159 
	C65.054398,22.955818 64.571396,23.503477 63.563545,23.708996 
	C60.762405,24.131901 56.046406,23.777939 55.503189,25.116888 
	C53.520737,30.003347 50.559216,32.110256 45.393158,31.086025 
	C45.771152,34.112751 46.057804,36.408085 45.807781,38.988873 
	C44.626965,39.694633 43.446152,40.400398 41.466965,41.056004 
	C38.031345,41.226414 36.781311,43.160023 36.936287,46.909882 
	C36.327862,47.287384 35.719437,47.664886 34.443722,47.757294 
	C29.595079,45.690872 27.694868,50.152420 25.222607,52.433163 
	C23.235786,54.266060 21.879341,57.313000 21.344824,60.037380 
	C20.829374,62.664577 21.955753,65.567932 21.964220,68.351181 
	C22.030376,90.101601 21.933895,111.852898 22.123636,133.601868 
	C22.139418,135.411026 23.888903,137.205048 24.973824,139.749207 
	C25.040937,140.500000 25.108051,141.250778 25.024265,142.634872 
	C25.025820,143.068451 25.027376,143.502014 25.011692,144.680481 
M131.429840,51.704903 
	C131.702591,51.990715 131.975327,52.276531 132.248077,52.562336 
	C132.366348,52.449356 132.484619,52.336376 132.602905,52.223396 
	C132.329773,51.937538 132.056625,51.651680 131.429840,51.704903 
M43.605377,148.798340 
	C43.213360,148.794083 42.821339,148.789825 42.429321,148.785553 
	C42.427788,148.948166 42.415321,149.252075 42.426308,149.252930 
	C42.816456,149.283112 43.208809,149.284897 43.605377,148.798340 
z"/>
<path fill="#4F4434" opacity="1.000000" stroke="none" 
	d="
M129.195099,63.012714 
	C129.148590,87.361893 129.102066,111.711075 129.042419,136.897278 
	C129.083923,138.493332 129.138550,139.252396 129.193176,140.011444 
	C128.977600,141.348297 128.762009,142.685135 127.936157,144.105560 
	C125.877632,144.219330 124.429359,144.249512 122.981094,144.279694 
	C122.539948,144.230606 122.098793,144.181503 121.006226,144.148956 
	C119.899956,144.157440 119.445122,144.149368 118.990280,144.141312 
	C118.950829,116.423065 118.911377,88.704819 119.053177,60.596745 
	C119.822540,60.469894 120.410660,60.732876 121.326897,60.947060 
	C122.425674,58.308113 123.196335,55.717972 124.296059,53.167839 
	C126.087242,54.471191 127.549370,55.734531 129.011490,56.997871 
	C129.015854,57.749195 129.020218,58.500523 129.020599,59.994034 
	C129.076111,61.495056 129.135605,62.253883 129.195099,63.012714 
z"/>
<path fill="#504434" opacity="1.000000" stroke="none" 
	d="
M25.175163,142.001572 
	C25.108051,141.250778 25.040937,140.500000 24.978786,138.924286 
	C25.046705,134.732391 25.109659,131.365448 25.545567,127.936615 
	C26.606260,126.037231 27.895632,124.193581 27.876905,122.363312 
	C27.798588,114.708916 27.117109,107.060188 27.057005,99.406242 
	C26.990290,90.910278 27.437132,82.410858 27.431986,73.913071 
	C27.431398,72.942154 25.962507,71.972130 25.104382,70.626480 
	C25.091034,68.739578 25.147730,67.227875 25.623629,65.778397 
	C26.574562,65.262428 27.106291,64.684258 27.638020,64.106079 
	C26.825790,63.842381 26.013557,63.578682 25.113720,62.936520 
	C24.661947,58.909279 24.795706,55.485264 29.088013,54.107567 
	C29.630499,54.399067 30.030899,54.457253 30.431301,54.515438 
	C30.318840,54.022449 30.206377,53.529465 30.168139,52.802921 
	C30.641909,52.302052 31.041456,52.034737 31.756680,51.881855 
	C36.990612,52.538738 39.022938,50.043140 39.241222,45.169846 
	C40.317223,44.317509 41.167774,43.695866 42.126007,43.281460 
	C42.434322,43.741581 42.689758,43.912636 43.165840,44.328991 
	C45.126762,46.206730 46.921841,47.757343 48.716919,49.307957 
	C48.153114,49.850578 47.589310,50.393200 46.350342,50.982132 
	C44.283913,50.937187 42.892647,50.845921 40.542217,50.691738 
	C41.349083,52.147839 41.919773,53.177731 42.490463,54.207619 
	C40.030174,56.909004 37.569881,59.610386 34.669334,62.721947 
	C33.701115,64.879028 33.002655,66.595375 32.682911,68.379601 
	C32.124878,71.493477 31.752241,74.643806 31.400557,77.789879 
	C31.257595,79.068794 31.355320,80.376778 31.372957,81.671135 
	C31.528460,93.083496 31.691702,104.495735 31.850262,115.908051 
	C31.920523,120.964996 31.875347,126.028664 32.180054,131.071304 
	C32.222099,131.767090 33.985210,132.358887 34.951538,132.998825 
	C35.153439,134.399155 35.355339,135.799500 35.698399,138.178864 
	C42.676380,131.468231 49.040234,125.348198 55.698158,119.378632 
	C56.658745,120.016510 57.325260,120.503899 57.996979,121.329811 
	C58.335510,122.446175 58.668839,123.224007 59.035362,124.307831 
	C59.698559,125.381104 60.328560,126.148392 60.958565,126.915680 
	C60.958561,126.915680 60.894775,127.298317 60.574127,127.647484 
	C58.544647,129.788437 56.835819,131.580215 55.126984,133.371994 
	C54.095863,134.308029 53.064747,135.244080 51.642799,136.576675 
	C50.207451,137.737427 49.162930,138.501633 47.976814,138.953781 
	C47.181885,138.237732 46.388336,137.363434 45.898945,137.509338 
	C43.492390,138.226791 41.166595,139.215134 38.231030,140.328217 
	C38.187546,141.002182 38.094170,142.449463 37.586121,143.970154 
	C35.773708,144.118668 34.375969,144.193802 32.978230,144.268951 
	C31.598627,144.224899 30.219023,144.180847 28.175615,144.110321 
	C27.340666,144.021179 27.169523,143.958527 26.960287,143.599274 
	C26.339851,142.868958 25.757507,142.435272 25.175163,142.001572 
z"/>
<path fill="#514334" opacity="1.000000" stroke="none" 
	d="
M61.012543,39.034271 
	C58.960480,40.898773 56.908417,42.763275 54.481949,44.201885 
	C53.969131,43.132046 53.830711,42.488102 53.692291,41.844154 
	C53.320683,42.046940 52.949074,42.249722 52.577465,42.452507 
	C53.080406,43.130672 53.583351,43.808838 54.086292,44.487003 
	C53.737450,45.013676 53.388603,45.540344 52.446518,46.015369 
	C50.817535,45.507812 49.781792,45.051899 48.746059,44.595078 
	C49.163822,43.395374 49.581581,42.196587 49.987289,40.520805 
	C49.669910,39.155357 49.364582,38.266899 49.156532,37.303566 
	C49.253811,37.228699 49.464046,37.101906 49.838394,37.370457 
	C50.808254,37.759808 51.403770,37.880611 52.324570,37.956268 
	C53.438755,36.036575 54.227657,34.162029 55.218002,32.053799 
	C56.097134,31.541351 56.774830,31.262589 57.685898,31.151730 
	C58.204685,31.439281 58.490101,31.558928 58.775513,31.678576 
	C58.813988,31.491203 58.852467,31.303831 58.890942,31.116459 
	C58.423737,31.065077 57.956535,31.013695 57.462540,30.591759 
	C59.653297,28.164516 61.870850,26.107826 64.088402,24.051136 
	C64.571396,23.503477 65.054398,22.955818 66.127472,22.253960 
	C68.388557,20.789354 69.929375,19.243670 71.763779,18.228519 
	C74.021461,16.979130 76.523918,16.172047 78.920578,15.173797 
	C78.919518,15.536619 79.073174,15.813617 79.835541,16.305109 
	C85.176239,20.827700 90.062950,25.049969 94.948410,29.684347 
	C93.094666,32.133228 91.242165,34.169998 89.132187,36.039673 
	C87.694237,35.054150 86.513779,34.235729 85.333313,33.417305 
	C84.433372,32.615654 83.533440,31.814007 82.190529,30.612978 
	C80.973999,29.795881 80.200447,29.378164 79.308128,28.896315 
	C79.133179,30.145454 79.002983,31.075027 78.513382,32.002415 
	C77.435112,32.000965 76.716248,32.001701 75.997391,32.002438 
	C75.754120,30.951332 75.510834,29.900229 75.109390,28.165766 
	C72.884605,29.903414 70.951187,31.413486 68.306213,32.997131 
	C63.655758,33.132717 61.932583,35.640278 61.012543,39.034271 
M55.409451,37.483601 
	C55.409451,37.483601 55.522671,37.416016 55.409451,37.483601 
z"/>
<path fill="#50422F" opacity="1.000000" stroke="none" 
	d="
M86.990822,91.828842 
	C81.968811,91.896744 76.946808,91.964645 71.414650,91.596992 
	C69.504539,89.646729 68.104576,88.132011 66.704613,86.617294 
	C66.957985,86.403313 67.211365,86.189331 67.464745,85.975342 
	C67.871223,86.283714 68.277710,86.592079 68.684196,86.900452 
	C68.879524,86.688622 69.074860,86.476799 69.270187,86.264969 
	C68.174889,84.829247 67.079597,83.393532 65.984299,81.957809 
	C67.368408,79.147682 68.752510,76.337547 70.290298,73.215385 
	C71.541206,73.062584 73.494286,72.824013 76.057785,72.292664 
	C77.411560,71.998276 78.154907,71.996658 78.993507,72.320877 
	C80.709862,73.457214 82.330963,74.267715 83.952072,75.078209 
	C83.988556,75.503433 84.025040,75.928665 84.115829,76.995300 
	C84.527390,78.434067 84.884628,79.231415 85.241867,80.028770 
	C85.956429,80.640877 86.670990,81.252983 87.692665,82.301193 
	C87.663460,85.767807 87.327141,88.798325 86.990822,91.828842 
z"/>
<path fill="#FAFAF4" opacity="1.000000" stroke="none" 
	d="
M25.204426,65.716179 
	C25.147730,67.227875 25.091034,68.739578 25.030701,71.089935 
	C25.075581,90.618553 25.124096,109.308525 25.172611,127.998489 
	C25.109659,131.365448 25.046705,134.732391 24.908318,138.552734 
	C23.888903,137.205048 22.139418,135.411026 22.123636,133.601868 
	C21.933895,111.852898 22.030376,90.101601 21.964220,68.351181 
	C21.955753,65.567932 20.829374,62.664577 21.344824,60.037380 
	C21.879341,57.313000 23.235786,54.266060 25.222607,52.433163 
	C27.694868,50.152420 29.595079,45.690872 34.650135,48.203384 
	C33.718033,49.688789 32.579517,50.728104 31.441002,51.767426 
	C31.041456,52.034737 30.641909,52.302052 29.917330,52.852665 
	C29.376842,53.382061 29.161386,53.628159 28.945930,53.874256 
	C24.795706,55.485264 24.661947,58.909279 25.049736,63.233833 
	C25.117048,64.511803 25.160738,65.113991 25.204426,65.716179 
z"/>
<path fill="#4D4232" opacity="1.000000" stroke="none" 
	d="
M35.037300,132.537048 
	C33.985210,132.358887 32.222099,131.767090 32.180054,131.071304 
	C31.875347,126.028664 31.920523,120.964996 31.850262,115.908051 
	C31.691702,104.495735 31.528460,93.083496 31.372957,81.671135 
	C31.355320,80.376778 31.257595,79.068794 31.400557,77.789879 
	C31.752241,74.643806 32.124878,71.493477 32.682911,68.379601 
	C33.002655,66.595375 33.701115,64.879028 34.579224,63.066986 
	C34.993931,86.026321 35.058495,109.050797 35.037300,132.537048 
z"/>
<path fill="#4B3E2E" opacity="1.000000" stroke="none" 
	d="
M89.389664,36.206772 
	C91.242165,34.169998 93.094666,32.133228 95.286964,29.838137 
	C97.150269,31.230865 98.673775,32.881912 100.152962,34.827248 
	C100.190468,35.418026 100.272278,35.714523 100.354095,36.011017 
	C100.537331,35.538349 100.720566,35.065685 101.243355,34.475464 
	C102.601791,35.278137 103.620674,36.198360 104.486069,37.501373 
	C106.555367,39.928318 108.778145,41.972473 111.000031,44.258709 
	C110.999138,44.500790 110.996971,44.985355 110.995956,45.245018 
	C110.995293,45.677792 110.995651,45.850903 110.987770,46.282898 
	C110.971130,46.714252 110.962738,46.886723 110.561005,47.040924 
	C109.114861,47.016109 108.062065,47.009563 106.753128,47.001907 
	C106.326241,46.999958 106.155479,46.999111 105.872772,46.726921 
	C103.517036,45.633343 101.273262,44.811115 98.724319,43.849030 
	C96.272392,41.845085 94.125618,39.980995 91.978851,38.116905 
	C91.978851,38.116905 91.841011,37.838089 91.417313,37.596497 
	C90.458961,36.972195 89.924309,36.589481 89.389664,36.206772 
M95.566940,37.295208 
	C95.295624,37.010643 95.024307,36.726078 94.752991,36.441513 
	C94.635529,36.554260 94.409508,36.758495 94.416290,36.766548 
	C94.669159,37.066605 94.943527,37.348537 95.566940,37.295208 
M104.483437,42.596752 
	C104.483437,42.596752 104.409744,42.478939 104.483437,42.596752 
z"/>
<path fill="#F1EFEA" opacity="1.000000" stroke="none" 
	d="
M104.639557,37.118584 
	C103.620674,36.198360 102.601791,35.278137 101.069717,34.427052 
	C100.556534,34.496193 100.197273,34.532959 100.197273,34.532959 
	C98.673775,32.881912 97.150269,31.230865 95.288208,29.426029 
	C90.062950,25.049969 85.176239,20.827700 80.079819,16.339371 
	C82.147629,16.794518 84.527885,17.293623 86.678780,18.288586 
	C89.968575,19.810383 91.493172,24.877762 96.453140,23.128201 
	C96.683540,23.046930 97.264000,23.282629 97.316994,23.472445 
	C98.720665,28.500477 102.764153,30.097439 107.066826,32.004986 
	C108.484741,32.633606 108.413582,36.621006 108.713669,39.368546 
	C107.149200,38.815861 105.894379,37.967224 104.639557,37.118584 
z"/>
<path fill="#453E36" opacity="1.000000" stroke="none" 
	d="
M78.898262,71.995033 
	C78.154907,71.996658 77.411560,71.998276 76.296509,71.997513 
	C75.991379,60.689606 76.057945,49.384098 76.578949,37.544647 
	C77.016190,36.215923 76.998993,35.421135 76.981796,34.626350 
	C76.600197,34.089672 76.218597,33.552998 75.917191,32.509380 
	C76.716248,32.001701 77.435112,32.000965 78.609070,32.337044 
	C79.141022,33.128727 79.217880,33.583599 79.294739,34.038467 
	C79.266212,46.057827 79.237679,58.077183 79.168671,70.663025 
	C79.120956,71.505531 79.044319,71.760704 78.898262,71.995033 
z"/>
<path fill="#F5F3EC" opacity="1.000000" stroke="none" 
	d="
M59.021564,115.062813 
	C57.484131,115.299149 55.946693,115.535484 53.552036,115.903595 
	C53.552036,115.020035 52.990948,113.006065 53.685307,112.376282 
	C54.693062,111.462265 56.602283,111.302780 58.136227,111.271454 
	C59.885387,111.235733 61.644642,111.694138 64.446945,112.083229 
	C65.506691,113.755447 68.491608,116.403671 68.446220,118.998909 
	C68.404472,121.386597 65.102722,123.717270 63.062607,125.554398 
	C63.141869,121.113358 63.878616,117.003708 59.021564,115.062813 
z"/>
<path fill="#F1EFEB" opacity="1.000000" stroke="none" 
	d="
M57.452522,30.983826 
	C56.774830,31.262589 56.097134,31.541351 54.936687,32.181789 
	C53.214195,33.656223 51.974457,34.768978 50.512882,35.950603 
	C50.015377,36.380283 49.739712,36.741093 49.464046,37.101906 
	C49.464046,37.101906 49.253811,37.228699 48.874825,37.403858 
	C47.778713,37.953815 47.061584,38.328613 46.344460,38.703415 
	C46.057804,36.408085 45.771152,34.112751 45.393158,31.086025 
	C50.559216,32.110256 53.520737,30.003347 55.503189,25.116888 
	C56.046406,23.777939 60.762405,24.131901 63.825974,23.880066 
	C61.870850,26.107826 59.653297,28.164516 57.477997,30.632719 
	C57.520248,31.044231 57.452522,30.983826 57.452522,30.983826 
z"/>
<path fill="#584E42" opacity="1.000000" stroke="none" 
	d="
M120.998779,60.995857 
	C120.410660,60.732876 119.822540,60.469894 118.916885,60.151245 
	C115.894226,58.239838 113.189117,56.384102 110.295410,53.953419 
	C109.721825,52.925194 109.336823,52.471912 109.364716,52.007515 
	C114.074379,52.802246 114.441513,49.599480 115.459198,46.737617 
	C116.196541,46.731682 116.617126,46.725349 117.037720,46.719013 
	C117.454857,47.106316 117.871994,47.493618 118.684845,48.287369 
	C120.197990,49.702343 121.315414,50.710876 122.101913,51.889404 
	C120.623833,52.936646 119.476685,53.813881 119.187637,54.034920 
	C119.911926,56.818642 120.455353,58.907249 120.998779,60.995857 
z"/>
<path fill="#F7F5F0" opacity="1.000000" stroke="none" 
	d="
M122.432838,51.719406 
	C121.315414,50.710876 120.197990,49.702343 118.949997,48.395134 
	C125.237190,45.780857 131.168640,49.643200 131.392807,56.357578 
	C131.399200,56.549343 130.281677,56.778629 129.349854,56.994144 
	C127.549370,55.734531 126.087242,54.471191 124.184021,52.920757 
	C123.306221,52.328911 122.869530,52.024158 122.432838,51.719406 
z"/>
<path fill="#EEEBE9" opacity="1.000000" stroke="none" 
	d="
M78.949593,14.752016 
	C76.523918,16.172047 74.021461,16.979130 71.763779,18.228519 
	C69.929375,19.243670 68.388557,20.789354 66.365402,22.090897 
	C68.743195,18.383234 71.148544,14.372222 74.308533,11.087102 
	C76.718651,8.581550 78.627632,10.029827 78.949593,14.752016 
z"/>
<path fill="#504839" opacity="1.000000" stroke="none" 
	d="
M65.631165,82.098083 
	C67.079597,83.393532 68.174889,84.829247 69.270187,86.264969 
	C69.074860,86.476799 68.879524,86.688622 68.684196,86.900452 
	C68.277710,86.592079 67.871223,86.283714 67.464745,85.975342 
	C67.211365,86.189331 66.957985,86.403313 66.704613,86.617294 
	C68.104576,88.132011 69.504539,89.646729 70.954788,91.512566 
	C68.574493,91.863693 66.143906,91.863693 63.438080,91.863693 
	C62.465687,88.362236 62.078571,85.008553 65.631165,82.098083 
z"/>
<path fill="#4D4232" opacity="1.000000" stroke="none" 
	d="
M38.000793,143.896759 
	C38.094170,142.449463 38.187546,141.002182 38.231030,140.328217 
	C41.166595,139.215134 43.492390,138.226791 45.898945,137.509338 
	C46.388336,137.363434 47.181885,138.237732 47.950874,139.202362 
	C47.902828,140.066605 47.840160,140.389816 47.878521,140.732605 
	C46.961426,141.466171 46.044331,142.199738 44.541161,143.306976 
	C41.970318,143.752670 39.985554,143.824707 38.000793,143.896759 
z"/>
<path fill="#504839" opacity="1.000000" stroke="none" 
	d="
M87.408203,91.926376 
	C87.327141,88.798325 87.663460,85.767807 87.999481,82.386238 
	C89.316856,83.898758 91.168701,85.592941 91.826027,87.665901 
	C92.793167,90.715836 91.464729,92.681831 87.408203,91.926376 
z"/>
<path fill="#54483A" opacity="1.000000" stroke="none" 
	d="
M49.999336,40.997795 
	C49.581581,42.196587 49.163822,43.395374 48.746059,44.595078 
	C49.781792,45.051899 50.817535,45.507812 52.188087,46.098053 
	C51.451351,47.206806 50.379810,48.181232 49.012596,49.231808 
	C46.921841,47.757343 45.126762,46.206730 43.484299,44.286945 
	C45.757721,42.944447 47.878529,41.971123 49.999336,40.997795 
z"/>
<path fill="#524B40" opacity="1.000000" stroke="none" 
	d="
M58.902794,115.348976 
	C63.878616,117.003708 63.141869,121.113358 62.795845,125.453506 
	C62.292339,126.182877 61.881111,126.494476 61.214226,126.860886 
	C60.328560,126.148392 59.698559,125.381104 59.309441,124.110809 
	C60.076313,122.362671 60.602303,121.117538 61.128292,119.872414 
	C60.805443,119.636711 60.482597,119.401016 60.159748,119.165321 
	C59.437088,119.773972 58.714432,120.382629 57.991776,120.991287 
	C57.325260,120.503899 56.658745,120.016510 55.997086,119.221458 
	C56.929298,117.820915 57.856663,116.728027 58.902794,115.348976 
z"/>
<path fill="#F3F3F2" opacity="1.000000" stroke="none" 
	d="
M123.028305,144.610840 
	C124.429359,144.249512 125.877632,144.219330 127.576920,144.304153 
	C128.868164,144.605545 129.908401,144.791916 131.474304,144.989151 
	C132.000000,145.000000 131.999390,144.999390 131.999390,144.999390 
	C131.041641,150.351868 125.802994,148.642700 122.465378,151.373718 
	C122.719482,148.695084 122.897499,146.818542 123.028305,144.610840 
z"/>
<path fill="#F1ECE7" opacity="1.000000" stroke="none" 
	d="
M108.951828,52.018635 
	C109.336823,52.471912 109.721825,52.925194 110.096962,53.682869 
	C107.206223,53.987270 104.325340,53.987270 100.513977,53.987270 
	C101.505997,51.567135 102.096191,50.127300 103.094528,48.345253 
	C103.674156,48.000450 103.845634,47.997856 104.170250,48.280403 
	C105.866203,49.716568 107.409012,50.867599 108.951828,52.018635 
z"/>
<path fill="#F0EDE8" opacity="1.000000" stroke="none" 
	d="
M117.035515,46.299797 
	C116.617126,46.725349 116.196541,46.731682 115.432816,46.425919 
	C114.384392,45.412357 113.679092,44.710896 112.852249,43.746639 
	C111.766296,42.577324 110.801895,41.670807 109.837486,40.764290 
	C111.649956,40.287159 114.751503,39.003464 115.046890,39.475559 
	C116.193199,41.307621 116.447174,43.698017 117.035515,46.299797 
z"/>
<path fill="#F5F3EE" opacity="1.000000" stroke="none" 
	d="
M37.586121,143.970154 
	C39.985554,143.824707 41.970318,143.752670 44.365105,143.552338 
	C43.588001,144.356888 42.400867,145.289734 41.213734,146.222565 
	C40.935375,145.867767 40.657017,145.512955 40.378658,145.158157 
	C40.204445,146.040268 40.030228,146.922363 39.856014,147.804474 
	C37.603786,146.855957 35.351559,145.907440 33.038780,144.613922 
	C34.375969,144.193802 35.773708,144.118668 37.586121,143.970154 
z"/>
<path fill="#EEEAE3" opacity="1.000000" stroke="none" 
	d="
M91.978531,38.511368 
	C94.125618,39.980995 96.272392,41.845085 98.727783,44.112129 
	C98.985016,44.682800 98.933640,44.850517 98.882256,45.018234 
	C97.355774,45.557213 95.829292,46.096188 93.717476,46.841843 
	C93.080818,43.936855 92.529510,41.421341 91.978531,38.511368 
z"/>
<path fill="#4F4639" opacity="1.000000" stroke="none" 
	d="
M49.987289,40.520805 
	C47.878529,41.971123 45.757721,42.944447 43.318459,43.959820 
	C42.689758,43.912636 42.434322,43.741581 42.201332,42.958542 
	C42.201092,41.987648 42.233215,41.546906 42.265343,41.106163 
	C43.446152,40.400398 44.626965,39.694633 46.076118,38.846146 
	C47.061584,38.328613 47.778713,37.953815 48.777550,37.478729 
	C49.364582,38.266899 49.669910,39.155357 49.987289,40.520805 
z"/>
<path fill="#54483A" opacity="1.000000" stroke="none" 
	d="
M31.756680,51.881851 
	C32.579517,50.728104 33.718033,49.688789 34.983780,48.345928 
	C35.719437,47.664886 36.327862,47.287384 37.299335,46.571510 
	C38.113514,45.955605 38.564644,45.678074 39.015774,45.400543 
	C39.022938,50.043140 36.990612,52.538738 31.756680,51.881851 
z"/>
<path fill="#574C3D" opacity="1.000000" stroke="none" 
	d="
M109.558144,40.622643 
	C110.801895,41.670807 111.766296,42.577324 112.523453,43.753075 
	C111.877769,44.020412 111.439339,44.018524 111.000916,44.016632 
	C108.778145,41.972473 106.555367,39.928318 104.486069,37.501373 
	C105.894379,37.967224 107.149200,38.815861 108.708961,39.788937 
	C109.102196,40.102585 109.190498,40.291794 109.558144,40.622643 
z"/>
<path fill="#EEEAE3" opacity="1.000000" stroke="none" 
	d="
M78.993507,72.320877 
	C79.044319,71.760704 79.120956,71.505531 79.236900,71.059669 
	C81.085411,71.289688 82.847450,71.623444 84.530968,72.190399 
	C84.701530,72.247849 84.398712,73.710930 84.133820,74.799957 
	C82.330963,74.267715 80.709862,73.457214 78.993507,72.320877 
z"/>
<path fill="#54483A" opacity="1.000000" stroke="none" 
	d="
M61.346375,38.965622 
	C61.932583,35.640278 63.655758,33.132717 67.989647,33.106922 
	C66.149826,35.061085 63.915016,36.979031 61.346375,38.965622 
z"/>
<path fill="#F5F3EE" opacity="1.000000" stroke="none" 
	d="
M48.064362,141.030746 
	C47.840160,140.389816 47.902828,140.066605 48.092468,139.514404 
	C49.162930,138.501633 50.207451,137.737427 51.569893,136.874664 
	C53.597786,140.628754 52.168648,141.973282 48.064362,141.030746 
z"/>
<path fill="#EEEAE3" opacity="1.000000" stroke="none" 
	d="
M89.132187,36.039673 
	C89.924309,36.589481 90.458961,36.972195 91.264023,37.570213 
	C88.957420,37.452751 84.768524,40.095795 85.236145,33.869347 
	C86.513779,34.235729 87.694237,35.054150 89.132187,36.039673 
z"/>
<path fill="#F5F3EE" opacity="1.000000" stroke="none" 
	d="
M55.535530,133.538055 
	C56.835819,131.580215 58.544647,129.788437 60.558311,127.840790 
	C61.519875,131.568039 59.955868,133.636292 55.535530,133.538055 
z"/>
<path fill="#574C3D" opacity="1.000000" stroke="none" 
	d="
M99.072166,45.288261 
	C98.933640,44.850517 98.985016,44.682800 99.032944,44.251984 
	C101.273262,44.811115 103.517036,45.633343 105.706284,46.969322 
	C105.106880,47.653809 104.561996,47.824539 104.017113,47.995270 
	C103.845634,47.997856 103.674156,48.000450 103.245712,48.015274 
	C101.746513,47.204433 100.504295,46.381359 99.072166,45.288261 
z"/>
<path fill="#FAFAF4" opacity="1.000000" stroke="none" 
	d="
M39.241222,45.169846 
	C38.564644,45.678074 38.113514,45.955605 37.408051,46.317825 
	C36.781311,43.160023 38.031345,41.226414 41.866154,41.081085 
	C42.233215,41.546906 42.201092,41.987648 42.093647,42.751305 
	C41.167774,43.695866 40.317223,44.317509 39.241222,45.169846 
z"/>
<path fill="#54483A" opacity="1.000000" stroke="none" 
	d="
M42.810806,54.159603 
	C41.919773,53.177731 41.349083,52.147839 40.542217,50.691738 
	C42.892647,50.845921 44.283913,50.937187 46.057201,51.050598 
	C45.336533,52.085697 44.233837,53.098640 42.810806,54.159603 
z"/>
<path fill="#EEEAE3" opacity="1.000000" stroke="none" 
	d="
M79.653763,34.021122 
	C79.217880,33.583599 79.141022,33.128727 78.968475,32.339230 
	C79.002983,31.075027 79.133179,30.145454 79.308128,28.896315 
	C80.200447,29.378164 80.973999,29.795881 81.892151,30.530815 
	C81.362091,31.899946 80.687431,32.951859 79.653763,34.021122 
z"/>
<path fill="#F5F3EE" opacity="1.000000" stroke="none" 
	d="
M26.998379,143.895905 
	C27.169523,143.958527 27.340666,144.021179 27.766777,144.182480 
	C27.913027,145.676254 27.804308,147.071365 27.695589,148.466492 
	C27.317499,148.554581 26.939409,148.642685 26.561319,148.730789 
	C26.044777,147.380692 25.528234,146.030579 25.349451,144.351456 
	C26.124266,143.980255 26.561323,143.938080 26.998379,143.895905 
z"/>
<path fill="#F7F5F0" opacity="1.000000" stroke="none" 
	d="
M129.517700,62.966743 
	C129.135605,62.253883 129.076111,61.495056 129.097107,60.362083 
	C129.990448,60.315857 130.803314,60.643772 131.616180,60.971687 
	C131.024216,61.621384 130.432251,62.271080 129.517700,62.966743 
z"/>
<path fill="#514334" opacity="1.000000" stroke="none" 
	d="
M76.720398,34.734509 
	C76.998993,35.421135 77.016190,36.215923 76.990082,37.203068 
	C76.784187,36.544506 76.621597,35.693588 76.720398,34.734509 
z"/>
<path fill="#EEEAE3" opacity="1.000000" stroke="none" 
	d="
M85.572464,79.972885 
	C84.884628,79.231415 84.527390,78.434067 84.210541,77.301323 
	C86.255882,77.135475 88.309853,77.277580 85.572464,79.972885 
z"/>
<path fill="#F7F5F0" opacity="1.000000" stroke="none" 
	d="
M129.506210,139.951294 
	C129.138550,139.252396 129.083923,138.493332 129.111786,137.360458 
	C129.402603,137.954803 129.610916,138.922989 129.506210,139.951294 
z"/>
<path fill="#F7F5F0" opacity="1.000000" stroke="none" 
	d="
M131.606659,51.535362 
	C132.056625,51.651680 132.329773,51.937538 132.602905,52.223396 
	C132.484619,52.336376 132.366348,52.449356 132.248077,52.562340 
	C131.975327,52.276531 131.702591,51.990715 131.606659,51.535362 
z"/>
<path fill="#4D4232" opacity="1.000000" stroke="none" 
	d="
M26.960289,143.599274 
	C26.561323,143.938080 26.124266,143.980255 25.358070,143.979004 
	C25.027376,143.502014 25.025820,143.068451 25.099712,142.318222 
	C25.757507,142.435272 26.339851,142.868958 26.960289,143.599274 
z"/>
<path fill="#F3F3F2" opacity="1.000000" stroke="none" 
	d="
M119.027512,144.417572 
	C119.445122,144.149368 119.899956,144.157440 120.688362,144.255096 
	C120.666519,144.772202 120.311119,145.199722 119.955711,145.627228 
	C119.658730,145.316086 119.361740,145.004944 119.027512,144.417572 
z"/>
<path fill="#F5F3EE" opacity="1.000000" stroke="none" 
	d="
M43.603111,149.044495 
	C43.208809,149.284897 42.816456,149.283112 42.426308,149.252930 
	C42.415321,149.252075 42.427788,148.948166 42.429321,148.785553 
	C42.821339,148.789825 43.213360,148.794083 43.603111,149.044495 
z"/>
<path fill="#F3F3F2" opacity="1.000000" stroke="none" 
	d="
M132.000305,145.000305 
	C132.093155,144.964386 132.185684,144.928146 132.138794,144.945648 
	C131.999390,144.999390 132.000000,145.000000 132.000305,145.000305 
z"/>
<path fill="#473B2B" opacity="1.000000" stroke="none" 
	d="
M122.101913,51.889408 
	C122.869530,52.024158 123.306221,52.328911 123.854950,52.880745 
	C123.196335,55.717972 122.425674,58.308113 121.326897,60.947060 
	C120.455353,58.907249 119.911926,56.818642 119.187637,54.034920 
	C119.476685,53.813881 120.623833,52.936646 122.101913,51.889408 
z"/>
<path fill="#4D4232" opacity="1.000000" stroke="none" 
	d="
M25.545567,127.936615 
	C25.124096,109.308525 25.075581,90.618553 25.100746,71.465134 
	C25.962507,71.972130 27.431398,72.942154 27.431986,73.913071 
	C27.437132,82.410858 26.990290,90.910278 27.057005,99.406242 
	C27.117109,107.060188 27.798588,114.708916 27.876905,122.363312 
	C27.895632,124.193581 26.606260,126.037231 25.545567,127.936615 
z"/>
<path fill="#473B2F" opacity="1.000000" stroke="none" 
	d="
M57.996979,121.329803 
	C58.714432,120.382629 59.437088,119.773972 60.159748,119.165321 
	C60.482597,119.401016 60.805443,119.636711 61.128292,119.872414 
	C60.602303,121.117538 60.076313,122.362671 59.276245,123.804825 
	C58.668839,123.224007 58.335510,122.446175 57.996979,121.329803 
z"/>
<path fill="#4D4232" opacity="1.000000" stroke="none" 
	d="
M25.623631,65.778397 
	C25.160738,65.113991 25.117048,64.511803 25.137342,63.612297 
	C26.013557,63.578682 26.825790,63.842381 27.638020,64.106079 
	C27.106291,64.684258 26.574562,65.262428 25.623631,65.778397 
z"/>
<path fill="#4D4232" opacity="1.000000" stroke="none" 
	d="
M29.088015,54.107567 
	C29.161386,53.628159 29.376842,53.382061 29.843107,53.086220 
	C30.206377,53.529465 30.318840,54.022449 30.431301,54.515438 
	C30.030899,54.457253 29.630499,54.399067 29.088015,54.107567 
z"/>
<path fill="#54483A" opacity="1.000000" stroke="none" 
	d="
M50.734722,35.881737 
	C51.974457,34.768978 53.214195,33.656223 54.735245,32.415474 
	C54.227657,34.162029 53.438755,36.036575 52.289181,37.627083 
	C51.530579,36.855946 51.132648,36.368843 50.734722,35.881737 
z"/>
<path fill="#4F4639" opacity="1.000000" stroke="none" 
	d="
M50.512882,35.950603 
	C51.132648,36.368843 51.530579,36.855946 51.963898,37.672234 
	C51.403770,37.880611 50.808254,37.759808 49.838394,37.370457 
	C49.739712,36.741093 50.015377,36.380283 50.512882,35.950603 
z"/>
<path fill="#54483A" opacity="1.000000" stroke="none" 
	d="
M54.069824,44.445206 
	C53.583351,43.808838 53.080406,43.130672 52.577465,42.452507 
	C52.949074,42.249722 53.320683,42.046940 53.692291,41.844154 
	C53.830711,42.488102 53.969131,43.132046 54.121811,44.107780 
	C54.136070,44.439564 54.053360,44.403408 54.069824,44.445206 
z"/>
<path fill="#54483A" opacity="1.000000" stroke="none" 
	d="
M57.504791,31.003271 
	C57.956535,31.013695 58.423737,31.065077 58.890942,31.116459 
	C58.852467,31.303831 58.813988,31.491203 58.775513,31.678576 
	C58.490101,31.558928 58.204685,31.439281 57.685898,31.151730 
	C57.452522,30.983826 57.520248,31.044231 57.504791,31.003271 
z"/>
<path fill="#54483A" opacity="1.000000" stroke="none" 
	d="
M55.466061,37.449806 
	C55.522671,37.416016 55.409451,37.483601 55.466061,37.449806 
z"/>
<path fill="#4A3E2E" opacity="1.000000" stroke="none" 
	d="
M104.170250,48.280403 
	C104.561996,47.824539 105.106880,47.653809 105.818237,47.240673 
	C106.155479,46.999111 106.326241,46.999958 106.905579,47.298126 
	C108.764763,49.026859 110.145233,49.982216 110.954346,47.059196 
	C110.962738,46.886723 110.971130,46.714252 111.158478,46.188141 
	C111.223938,45.551456 111.110458,45.268406 110.996971,44.985355 
	C110.996971,44.985355 110.999138,44.500790 111.000031,44.258713 
	C111.439339,44.018524 111.877769,44.020412 112.644989,44.015869 
	C113.679092,44.710896 114.384392,45.412357 115.116074,46.425522 
	C114.441513,49.599480 114.074379,52.802246 109.364716,52.007515 
	C107.409012,50.867599 105.866203,49.716568 104.170250,48.280403 
z"/>
<path fill="#574C3D" opacity="1.000000" stroke="none" 
	d="
M110.561005,47.040924 
	C110.145233,49.982216 108.764763,49.026859 107.161720,47.299236 
	C108.062065,47.009563 109.114861,47.016109 110.561005,47.040924 
z"/>
<path fill="#514334" opacity="1.000000" stroke="none" 
	d="
M95.390961,37.464066 
	C94.943527,37.348537 94.669159,37.066605 94.416290,36.766548 
	C94.409508,36.758495 94.635529,36.554260 94.752991,36.441513 
	C95.024307,36.726078 95.295624,37.010643 95.390961,37.464066 
z"/>
<path fill="#574C3D" opacity="1.000000" stroke="none" 
	d="
M100.152962,34.827248 
	C100.197273,34.532959 100.556534,34.496193 100.730164,34.544605 
	C100.720566,35.065685 100.537331,35.538349 100.354095,36.011017 
	C100.272278,35.714523 100.190468,35.418026 100.152962,34.827248 
z"/>
<path fill="#574C3D" opacity="1.000000" stroke="none" 
	d="
M110.995956,45.245018 
	C111.110458,45.268406 111.223938,45.551456 111.166718,45.929260 
	C110.995651,45.850903 110.995293,45.677792 110.995956,45.245018 
z"/>
<path fill="#574C3D" opacity="1.000000" stroke="none" 
	d="
M104.446594,42.537846 
	C104.409744,42.478939 104.483437,42.596752 104.446594,42.537846 
z"/>
</svg>